<?xml version="1.0" encoding="UTF-8"?> <svg xmlns="http://www.w3.org/2000/svg" width="103" height="95" viewBox="0 0 103 95" fill="none"><g clip-path="url(#clip0_33_5)"><path d="M58.4127 25.3913C60.4382 27.048 62.7311 28.0553 65.2939 28.4133C68.6532 28.8825 72.1763 28.1364 75.003 26.2039C78.1033 24.0841 80.0998 21.1854 80.9914 17.508C81.2312 16.5224 81.3493 15.4365 81.3469 14.2526C81.3457 13.0675 81.2228 11.9828 80.9806 10.9972C80.0781 7.3222 78.0731 4.43081 74.9657 2.32061C72.1318 0.397852 68.6074 -0.337392 65.2494 0.142693C62.6877 0.509106 60.3972 1.52369 58.3778 3.18646C56.1547 5.01731 54.6185 7.31495 53.7714 10.0794C53.3557 11.4338 53.1497 12.8402 53.1521 14.2973C53.1545 15.7545 53.3654 17.1597 53.7847 18.5129C54.6414 21.2749 56.1837 23.5677 58.4127 25.3913ZM55.5896 13.7157C55.7294 11.0287 56.6512 8.67055 58.3561 6.64138C59.9381 4.75852 61.8768 3.50329 64.1698 2.87567C66.4952 2.23838 68.7641 2.30489 70.9763 3.0752C75.5633 4.66783 78.6214 8.81204 78.9118 13.6588C78.9286 13.9285 78.9371 14.1426 78.9359 14.2986C78.9359 14.4545 78.9274 14.6674 78.9094 14.9371C78.5997 19.7826 75.5248 23.9148 70.9317 25.4892C68.7159 26.2499 66.447 26.3067 64.124 25.661C61.8335 25.0237 59.9008 23.76 58.326 21.8711C56.6295 19.8359 55.7162 17.4741 55.5872 14.7859C55.5716 14.4727 55.5643 14.2937 55.5643 14.2502C55.5643 14.2066 55.5728 14.0289 55.5896 13.7157Z" fill="#6E70B4"></path><path d="M32.3914 27.1919C34.6687 28.9526 37.6689 29.7217 40.5535 29.2163C45.6743 28.319 49.4059 23.8652 49.4083 18.6169C49.4119 13.3674 45.6839 8.90999 40.5643 8.00786C37.681 7.49876 34.6796 8.26423 32.3999 10.0225C30.5407 11.4592 29.278 13.2961 28.6117 15.5332C28.3189 16.5152 28.1731 17.5394 28.1719 18.6048C28.1719 19.6714 28.3177 20.6957 28.608 21.6776C29.272 23.916 30.5323 25.7541 32.3914 27.1919ZM39.41 10.3382C43.6898 10.6586 46.972 14.3215 46.978 18.5988C46.984 22.876 43.7127 26.5486 39.4341 26.8823C34.6687 27.2524 30.5986 23.431 30.5913 18.6229C30.5841 13.8148 34.6434 9.98141 39.41 10.3382Z" fill="#EE4789"></path><path d="M85.0579 42.1532C84.6831 41.4155 84.2699 40.7262 83.818 40.0853C81.8323 37.2701 79.4093 35.1284 76.5488 33.6592C73.4872 32.0859 70.2315 31.3567 66.7819 31.4692C66.4216 31.48 66.0626 31.4982 65.7035 31.5224C61.8924 31.896 58.4705 33.2359 55.4389 35.5444C54.4666 36.2906 53.6388 37.0452 52.9544 37.8082C52.217 38.6317 51.4868 39.4565 50.7627 40.2824C50.7603 40.2848 50.7579 40.2872 50.7543 40.2897C50.7326 40.3054 50.7012 40.2993 50.6856 40.2776C48.8469 37.6667 46.525 35.6242 43.7212 34.1526C41.5524 33.0328 39.3125 32.3519 37.0039 32.1089C32.2108 31.6058 27.8285 32.7413 23.8572 35.5142C20.3726 38.0247 17.964 41.2922 16.6314 45.3154C16.3759 46.0882 16.1699 46.8682 16.0145 47.6554C15.5482 50.0232 15.5072 52.3897 15.8904 54.7563C16.2892 57.2148 17.1555 59.5487 18.4881 61.758C18.7363 62.1704 19.1906 62.8355 19.8497 63.7546C21.7233 66.363 23.1632 68.368 24.1705 69.7695H28.0563C28.1117 69.6776 28.1744 69.5918 28.2442 69.5132C33.4904 63.5732 38.7329 57.632 43.9694 51.6884C47.5528 47.6288 51.1314 43.568 54.7075 39.5073C54.9196 39.2666 55.3473 38.8518 55.9884 38.2605C58.803 35.8189 62.0611 34.392 65.7649 33.9796C66.4493 33.9313 67.1614 33.8768 67.8229 33.8962C71.2629 34.0026 74.3896 35.0063 77.2019 36.9073C77.8971 37.3765 78.5297 37.8723 79.0984 38.3947C82.2806 41.3103 84.1795 44.9381 84.7952 49.2783C84.8759 49.8466 84.9241 50.4561 84.9386 51.1067C84.9554 51.8528 84.9446 52.4647 84.9036 52.94C84.5578 57.0358 83.0324 60.5959 80.3274 63.6179C79.4093 64.6446 77.5983 66.6955 74.8933 69.7695H78.1598C80.6732 66.9168 81.9685 65.4464 82.048 65.3557C82.7517 64.5539 83.2601 63.9311 83.5734 63.4861C85.3446 60.972 86.4893 58.2922 87.0086 55.4492C87.8569 50.808 87.2062 46.376 85.0579 42.1532ZM48.7107 42.4724C48.6517 42.6308 48.4818 42.8691 48.2023 43.1859C46.6046 44.9938 45.0105 46.8016 43.4188 48.6095C37.9449 54.8216 32.471 61.0288 26.9972 67.2325C26.7947 67.4622 26.5453 67.588 26.2489 67.611C25.8344 67.6073 25.5356 67.4792 25.3549 67.2288C24.1307 65.525 22.9439 63.8719 21.7956 62.2696C21.157 61.3771 20.7088 60.712 20.4509 60.273C19.1761 58.0963 18.4122 55.8314 18.1616 53.4793C17.8676 50.7004 18.1953 48.0327 19.146 45.4775C20.1364 42.8171 21.7052 40.5388 23.8512 38.6438C25.7019 37.0222 27.7382 35.8722 29.96 35.1937C33.0855 34.2408 36.2123 34.1949 39.3402 35.0547C40.8572 35.4719 42.3079 36.1068 43.6923 36.9605C45.7238 38.2194 47.3528 39.7443 48.5794 41.534C48.7879 41.8375 48.8312 42.1495 48.7107 42.4724Z" fill="url(#paint0_linear_33_5)"></path><path d="M64.3914 53.9763L59.0175 60.2997C56.3342 63.4607 53.6484 66.6169 50.9615 69.7695L50.0265 70.7575C49.953 70.8349 49.8229 70.7986 49.8 70.6934L49.3759 68.7114C49.3686 68.6703 49.3783 68.6328 49.4048 68.6002L56.2547 60.5451L63.031 52.5832C63.113 52.4865 63.1937 52.4853 63.2732 52.5772L64.3902 53.8892C64.4155 53.9183 64.4155 53.9473 64.3914 53.9763Z" fill="url(#paint1_linear_33_5)"></path><path d="M25.5885 79.3447C26.0018 79.3483 26.3211 79.3785 26.5464 79.4378C28.4273 79.9275 29.4394 81.1187 29.5816 83.0136C29.6683 84.1649 29.3237 85.1577 28.5466 85.9921C27.8803 86.7092 26.9019 87.1095 25.9187 87.1699C25.844 87.1748 25.7138 87.176 25.5295 87.1748C25.3451 87.1748 25.215 87.1699 25.1403 87.1639C24.1583 87.0889 23.1859 86.6741 22.5305 85.9461C21.7666 85.1008 21.4364 84.1032 21.54 82.9532C21.7111 81.0606 22.7413 79.884 24.6294 79.4233C24.8547 79.3676 25.1752 79.341 25.5885 79.3447ZM25.6223 85.3572C26.7296 85.3246 27.5995 84.3583 27.5658 83.1986C27.532 82.0401 26.6055 81.1271 25.4982 81.1598C24.3909 81.1924 23.5209 82.1587 23.5546 83.3184C23.5884 84.4768 24.515 85.3899 25.6223 85.3572Z" fill="white"></path><path d="M43.8128 79.3447C44.2068 79.3483 44.5164 79.3761 44.7442 79.4293C46.3443 79.8066 47.3419 80.7849 47.7371 82.3642C47.8347 82.7548 47.8504 83.2458 47.7817 83.8347C47.5841 85.5386 46.3551 86.7576 44.6851 87.1058C44.4502 87.1542 44.1393 87.1772 43.7525 87.1748C43.3657 87.1711 43.0561 87.1433 42.8211 87.0913C41.1572 86.7176 39.9474 85.4793 39.7751 83.773C39.7161 83.1829 39.739 82.6932 39.8426 82.3038C40.2619 80.7305 41.274 79.7667 42.8802 79.4148C43.1079 79.3652 43.4188 79.341 43.8128 79.3447ZM43.8417 85.3572C44.949 85.3258 45.8213 84.362 45.7888 83.2023C45.7563 82.0438 44.8321 81.1283 43.7248 81.1598C42.6175 81.1912 41.7451 82.155 41.7777 83.3147C41.8102 84.4732 42.7344 85.3886 43.8417 85.3572Z" fill="white"></path><path d="M100.859 84.6715C100.761 84.4514 100.614 84.316 100.417 84.2664C99.5998 84.0596 99.101 83.9254 98.9203 83.8637C97.7491 83.4683 97.1671 82.4307 97.3732 81.2202C97.6587 79.549 99.3239 79.1995 100.81 79.3773C101.849 79.5019 102.572 80.0654 102.978 81.0691C102.995 81.109 102.983 81.1356 102.941 81.1477L101.071 81.6907C101.048 81.6967 101.024 81.6846 101.016 81.6628C100.836 81.2069 100.494 81.0086 99.9902 81.0655C99.7745 81.0896 99.6239 81.1562 99.5384 81.2662C99.1215 81.7971 99.5721 82.1635 100.082 82.2747C100.319 82.3267 100.734 82.4344 101.324 82.6C102.363 82.8903 103.033 83.8601 102.999 84.9327C102.964 86.084 102.26 86.8458 101.137 87.078C99.9083 87.332 98.6805 87.1143 97.7395 86.2835C97.4768 86.0501 97.2973 85.7611 97.1876 85.4382C97.1671 85.3765 97.1876 85.3378 97.2491 85.3197L99.089 84.8058C99.1263 84.7949 99.154 84.8058 99.1745 84.8396C99.501 85.3898 99.9493 85.5712 100.518 85.3814C100.766 85.2991 100.979 84.9485 100.859 84.6715Z" fill="white"></path><path d="M55.9689 84.3547L57.5606 86.9946C57.5835 87.0333 57.5726 87.0526 57.5281 87.0526H55.3749C55.3255 87.0514 55.2893 87.0309 55.2652 86.9885L53.9676 84.6873C53.9471 84.6498 53.9145 84.6316 53.8712 84.6316H53.2988C53.2591 84.6328 53.2386 84.6534 53.2386 84.6945V86.9909C53.2386 87.0308 53.2217 87.0502 53.188 87.0502H51.3011C51.2686 87.0514 51.2517 87.0308 51.2517 86.9909V79.5297C51.2529 79.491 51.2722 79.4716 51.3095 79.4704C51.6361 79.462 52.453 79.4607 53.7627 79.4656C53.7712 79.4656 53.9652 79.4583 54.3423 79.445C54.9363 79.4245 55.4785 79.549 55.9665 79.8175C57.0087 80.3895 57.4582 81.4476 57.228 82.6061C57.0907 83.299 56.6786 83.8504 55.993 84.258C55.952 84.2822 55.9436 84.3148 55.9689 84.3547ZM53.2434 81.3206L53.2338 82.7427C53.2338 82.7669 53.2531 82.7875 53.2772 82.7887C53.2772 82.7887 53.2772 82.7887 53.2784 82.7887L54.2989 82.7959C54.7821 82.7996 55.1761 82.4767 55.1785 82.0752V82.0172C55.1809 81.6157 54.7917 81.288 54.3086 81.2843L53.288 81.2771C53.2639 81.2771 53.2446 81.2964 53.2434 81.3206Z" fill="white"></path><path d="M84.6566 84.709V86.9909C84.6578 87.0308 84.6373 87.0514 84.5975 87.0514H82.7299C82.6902 87.0514 82.6697 87.0308 82.6697 86.9909V79.5297C82.6697 79.4922 82.689 79.4728 82.7263 79.4716C83.2541 79.4607 84.0035 79.4595 84.9735 79.468C84.9831 79.468 85.2156 79.4595 85.6699 79.4438C87.2881 79.3858 88.7352 80.3556 88.7026 82.1066C88.6846 83.0354 88.2568 83.7501 87.4194 84.2519C87.3736 84.2797 87.364 84.316 87.3917 84.362L88.9786 86.9958C89.0014 87.0333 88.9906 87.0514 88.946 87.0514H86.7929C86.7435 87.0514 86.7061 87.0296 86.682 86.9873L85.3843 84.686C85.3638 84.6498 85.3313 84.6316 85.2891 84.6316H84.7301C84.6807 84.6328 84.6566 84.6582 84.6566 84.709ZM84.6554 81.3375L84.6481 82.7258C84.6481 82.7609 84.677 82.7899 84.712 82.7899L85.7036 82.7947C86.194 82.7971 86.5941 82.4743 86.5965 82.074V82.0087C86.5989 81.6084 86.2025 81.2807 85.7109 81.2783L84.7192 81.2735C84.6843 81.2735 84.6554 81.3025 84.6554 81.3375Z" fill="white"></path><path d="M0.0265079 79.5055C0.0265079 79.4777 0.0481962 79.4559 0.0759089 79.4559L2.76646 79.4656C4.98107 79.474 6.77035 81.1296 6.76313 83.1636V83.3837C6.7559 85.4177 4.95456 87.0611 2.73995 87.0526L0.0494011 87.0429C0.0216883 87.0429 0 87.0212 0 86.9934L0.0265079 79.5055ZM2.00375 81.4246L1.99653 85.0887C1.99653 85.1214 2.02303 85.148 2.05557 85.148H2.64838C3.78822 85.1516 4.71358 84.3184 4.71599 83.2893V83.2337C4.7172 82.2046 3.79545 81.369 2.65561 81.3666H2.0628C2.03026 81.3654 2.00375 81.392 2.00375 81.4246Z" fill="white"></path><path d="M9.72364 85.2073H12.7733C12.7973 85.2073 12.8166 85.2266 12.8166 85.2508L12.8142 87.0079C12.8142 87.0321 12.7949 87.0514 12.7708 87.0514H7.73796C7.71386 87.0514 7.69458 87.0321 7.69458 87.0079V79.5067C7.69458 79.4825 7.71386 79.4632 7.73796 79.4632H12.7106C12.7347 79.4644 12.754 79.4837 12.754 79.5079V81.2638C12.754 81.288 12.7359 81.3073 12.7118 81.3073H9.72605C9.70195 81.3061 9.68267 81.3255 9.68267 81.3496V82.3207C9.68267 82.3449 9.70074 82.3642 9.72484 82.3642L12.1081 82.3667C12.1322 82.3667 12.1515 82.386 12.1515 82.4102V84.1056C12.1515 84.1298 12.1322 84.1491 12.1081 84.1491H9.72725C9.70316 84.1491 9.68388 84.1685 9.68388 84.1927L9.68026 85.1637C9.68026 85.1879 9.69954 85.2073 9.72364 85.2073Z" fill="white"></path><path d="M17.4181 84.5603C17.4338 84.5603 17.4434 84.5542 17.447 84.5421C17.9736 83.0378 18.5604 81.3641 19.2074 79.5224C19.2219 79.4813 19.2496 79.4607 19.2905 79.4607H21.3172C21.3642 79.4595 21.3798 79.4825 21.3618 79.5285L18.5134 87.0188C18.5074 87.0333 18.4941 87.0429 18.4784 87.0429C18.1278 87.0478 17.7748 87.0502 17.4205 87.0514C17.0663 87.0514 16.7132 87.049 16.3626 87.0454C16.347 87.0454 16.3337 87.0357 16.3277 87.0212L13.4648 79.5369C13.4468 79.491 13.4624 79.468 13.5094 79.4668L15.5361 79.4644C15.577 79.4644 15.6047 79.4849 15.6192 79.526C16.271 81.3666 16.8602 83.039 17.3892 84.5421C17.3928 84.5542 17.4025 84.5603 17.4181 84.5603Z" fill="white"></path><path d="M32.8818 79.4632C34.7024 79.4607 35.7266 79.4632 35.9543 79.468C35.9941 79.468 36.0145 79.4886 36.0145 79.5285L36.0169 81.242C36.0169 81.2747 35.9916 81.3013 35.9579 81.3025C35.9579 81.3025 35.9579 81.3025 35.9567 81.3025H33.959C33.9156 81.3025 33.8939 81.3255 33.8939 81.3702L33.9023 86.9801C33.9023 87.0212 33.8831 87.0429 33.8421 87.0442C33.7565 87.0478 33.4397 87.0502 32.8938 87.0514C32.348 87.0514 32.0323 87.0514 31.9468 87.0478C31.9058 87.0466 31.8853 87.0248 31.8853 86.9837L31.8769 81.3738C31.8769 81.3291 31.854 81.3073 31.8106 81.3073L29.8129 81.3122C29.7792 81.3122 29.7527 81.2856 29.7527 81.2529L29.7502 79.5394C29.7502 79.4994 29.7707 79.4801 29.8105 79.4789C30.0382 79.4728 31.0612 79.468 32.8818 79.4644V79.4632Z" fill="white"></path><path d="M38.798 79.4644H36.8966C36.8727 79.4644 36.8533 79.4838 36.8533 79.5079V87.0079C36.8533 87.0319 36.8727 87.0514 36.8966 87.0514H38.798C38.8219 87.0514 38.8414 87.0319 38.8414 87.0079V79.5079C38.8414 79.4838 38.8219 79.4644 38.798 79.4644Z" fill="white"></path><path d="M60.45 85.2073H63.4984C63.5225 85.2073 63.5417 85.2266 63.5417 85.2508V87.0079C63.5405 87.0321 63.5213 87.0514 63.4972 87.0514H58.4643C58.4402 87.0514 58.4209 87.0321 58.4209 87.0079V79.5067C58.4209 79.4825 58.4402 79.4632 58.4643 79.4632H63.4369C63.461 79.4644 63.4803 79.4837 63.4803 79.5079V81.2638C63.4815 81.288 63.4622 81.3073 63.4381 81.3073H60.4524C60.4283 81.3061 60.409 81.3255 60.409 81.3496V82.3207C60.4078 82.3449 60.4271 82.3642 60.4512 82.3642L62.8345 82.3667C62.8586 82.3667 62.8778 82.386 62.8778 82.4102V84.1056C62.8778 84.1298 62.8586 84.1491 62.8345 84.1491H60.4524C60.4283 84.1491 60.409 84.1685 60.409 84.1927L60.4066 85.1637C60.4066 85.1879 60.4259 85.2073 60.45 85.2073Z" fill="white"></path><path d="M71.6665 83.7368C71.6846 83.8069 71.7039 83.8069 71.722 83.7368L72.8474 79.5152C72.8558 79.4801 72.8787 79.4632 72.9148 79.4632H74.833C74.88 79.4632 74.8957 79.4861 74.8824 79.5321L72.7498 86.9861C72.7377 87.0296 72.71 87.0514 72.6654 87.0514H70.7147C70.6773 87.0514 70.6532 87.0321 70.6436 86.9946L69.5568 82.669C69.5411 82.6049 69.5242 82.6049 69.5086 82.669L68.423 86.9861C68.4121 87.0309 68.3832 87.0526 68.3386 87.0526H66.3999C66.3553 87.0514 66.3264 87.0296 66.3144 86.9873L64.1829 79.5394C64.1696 79.4898 64.1877 79.4644 64.2395 79.4644H66.1373C66.1818 79.4632 66.2107 79.4849 66.2228 79.5297L67.3638 83.8178C67.3904 83.9182 67.4156 83.9182 67.441 83.8178L68.5193 79.5285C68.5302 79.4849 68.5579 79.4632 68.6037 79.4632H70.4616C70.5062 79.4632 70.5339 79.4849 70.5448 79.5285L71.6665 83.7368Z" fill="white"></path><path d="M77.9514 79.4632C78.3502 79.4632 78.6912 79.4668 78.9731 79.4728C79.0129 79.4728 79.0406 79.4922 79.0551 79.5297L81.901 86.9897C81.9107 87.0127 81.8986 87.0393 81.8757 87.0478C81.8709 87.0502 81.8649 87.0514 81.8589 87.0514H79.8708C79.8322 87.0514 79.7973 87.0284 79.784 86.9922L79.3888 85.9026C79.3756 85.8663 79.3503 85.8482 79.3117 85.847C79.1756 85.8433 78.7225 85.8421 77.9526 85.8421C77.1826 85.8421 76.7296 85.8433 76.5934 85.847C76.5549 85.847 76.5296 85.8663 76.5163 85.9026L76.1211 86.9922C76.1079 87.0284 76.0729 87.0514 76.0344 87.0514H74.0463C74.021 87.0514 74.0005 87.0321 74.0005 87.0067C74.0005 87.0006 74.0005 86.9958 74.0041 86.9909L76.8489 79.5297C76.8633 79.4922 76.8911 79.4741 76.9308 79.4728C77.2128 79.4668 77.5525 79.4632 77.9514 79.4632ZM77.2079 84.004C77.2007 84.0258 77.2116 84.0488 77.2332 84.056C77.2369 84.0572 77.2417 84.0584 77.2465 84.0584H78.6587C78.6815 84.0584 78.6996 84.0403 78.6996 84.0173C78.6996 84.0125 78.6996 84.0089 78.6972 84.004L77.9911 82.0692C77.9839 82.0474 77.9598 82.0365 77.9393 82.0438C77.9273 82.0474 77.9188 82.0571 77.914 82.0692L77.2079 84.004Z" fill="white"></path><path d="M89.851 79.5043C89.851 79.4765 89.8727 79.4547 89.9004 79.4547L92.5945 79.4644C94.8079 79.4728 96.5972 81.1283 96.59 83.1636V83.3812C96.5828 85.4164 94.7814 87.0599 92.568 87.0514L89.8739 87.0417C89.8462 87.0417 89.8245 87.02 89.8245 86.9921L89.851 79.5043ZM91.833 81.4016L91.821 85.1045C91.821 85.1262 91.8391 85.1444 91.8608 85.1444L92.4728 85.1468C93.6115 85.1504 94.5368 84.3208 94.5405 83.2929V83.2325C94.5441 82.2046 93.6235 81.3678 92.4849 81.3641L91.8728 81.3617C91.8511 81.3617 91.833 81.3799 91.833 81.4016Z" fill="white"></path><path d="M8.16914 93.2115C8.16914 93.7968 7.6944 94.2708 7.11003 94.2696H6.85459C6.27141 94.2684 5.79909 93.7919 5.8003 93.2066L5.80391 91.4387C5.80391 90.8534 6.27864 90.3793 6.86302 90.3806H7.11846C7.70163 90.3818 8.17396 90.8582 8.17275 91.4435L8.16914 93.2115ZM7.45222 91.4387C7.45222 91.2017 7.26064 91.0094 7.02448 91.0094H6.94736C6.7112 91.0094 6.51962 91.2017 6.51962 91.4387V93.2163C6.51962 93.4533 6.7112 93.6456 6.94736 93.6456H7.02448C7.26064 93.6456 7.45222 93.4533 7.45222 93.2163V91.4387Z" fill="white"></path><path d="M24.7101 93.2103C24.7101 93.7944 24.2402 94.2696 23.6582 94.2708H23.398C22.816 94.272 22.3425 93.7992 22.3413 93.2151L22.3376 91.4423C22.3376 90.8582 22.8076 90.383 23.3895 90.3818H23.6498C24.2318 90.3806 24.7053 90.8534 24.7065 91.4375L24.7101 93.2103ZM23.9896 91.4375C23.9896 91.2005 23.7992 91.0094 23.563 91.0094H23.4835C23.2473 91.0094 23.057 91.2005 23.057 91.4375V93.2151C23.057 93.4521 23.2473 93.6432 23.4835 93.6432H23.563C23.7992 93.6432 23.9896 93.4521 23.9896 93.2151V91.4375Z" fill="white"></path><path d="M39.1967 93.2139C39.1967 93.798 38.7244 94.272 38.1424 94.272H37.8822C37.3002 94.272 36.8279 93.798 36.8279 93.2139V91.4411C36.8279 90.857 37.3002 90.383 37.8822 90.383H38.1424C38.7244 90.383 39.1967 90.857 39.1967 91.4411V93.2139ZM38.4786 91.435C38.4786 91.2029 38.2906 91.0142 38.0593 91.0142H37.9653C37.734 91.0142 37.546 91.2029 37.546 91.435V93.2199C37.546 93.4521 37.734 93.6408 37.9653 93.6408H38.0593C38.2906 93.6408 38.4786 93.4521 38.4786 93.2199V91.435Z" fill="white"></path><path d="M67.3553 91.4556C67.2794 91.1412 67.042 90.8945 66.7071 90.9973C66.6263 91.0215 66.5637 91.0771 66.5179 91.1629C66.3914 91.3988 66.4649 91.5971 66.7384 91.7579C67.3999 92.1485 68.0373 92.4158 68.0553 93.1921C68.065 93.6117 67.9011 93.9141 67.5625 94.1003C66.7914 94.5235 65.9178 94.2019 65.6757 93.3191C65.6479 93.2211 65.6757 93.1728 65.76 93.174C65.7757 93.174 65.9419 93.1425 66.2576 93.0809C66.3396 93.0651 66.3817 93.099 66.3829 93.1824C66.3853 93.2804 66.4396 93.3856 66.5468 93.4993C66.7058 93.671 66.8782 93.7218 67.0625 93.6517C67.471 93.4957 67.389 92.9817 67.0541 92.7749C66.7733 92.602 66.495 92.4291 66.2203 92.2573C65.8684 92.0373 65.7118 91.7156 65.7516 91.2923C65.7913 90.8751 65.9962 90.5994 66.3661 90.4628C67.077 90.2016 67.8047 90.5003 68.0156 91.2645C68.0204 91.2839 68.0132 91.296 67.9951 91.302L67.3975 91.4786C67.3746 91.4858 67.3613 91.4786 67.3553 91.4556Z" fill="white"></path><path d="M76.8198 93.2127C76.8198 93.7968 76.3486 94.2696 75.7667 94.2696H75.504C74.922 94.2696 74.4509 93.7968 74.4509 93.2127V91.4399C74.4509 90.8558 74.922 90.383 75.504 90.383H75.7667C76.3486 90.383 76.8198 90.8558 76.8198 91.4399V93.2127ZM76.1016 91.4338C76.1016 91.2016 75.9149 91.0142 75.6835 91.0142H75.5872C75.3558 91.0142 75.169 91.2016 75.169 91.4338V93.2212C75.169 93.4533 75.3558 93.6408 75.5872 93.6408H75.6835C75.9149 93.6408 76.1016 93.4533 76.1016 93.2212V91.4338Z" fill="white"></path><path d="M86.4541 93.4944C86.5493 93.3651 86.5807 93.1655 86.5493 92.8971C86.5457 92.8705 86.5578 92.8572 86.5843 92.8572H87.2265C87.2518 92.8572 87.2723 92.8765 87.2747 92.9019C87.3096 93.5198 87.0951 94.1305 86.4216 94.2418C85.689 94.3627 84.9938 94.1317 84.9275 93.2828C84.8781 92.6564 84.8757 92.0191 84.9227 91.3722C84.9625 90.8292 85.2842 90.4761 85.8384 90.4011C86.7144 90.2826 87.294 90.7107 87.2723 91.6164C87.2723 91.637 87.2614 91.6467 87.2409 91.6467L86.565 91.6442C86.5505 91.6442 86.5445 91.6358 86.5457 91.6225C86.5879 91.2561 86.4614 91.0553 86.1686 91.0178C85.8312 90.9755 85.6505 91.1255 85.6252 91.4653C85.6155 91.5922 85.6155 92.128 85.6252 93.07C85.6288 93.4328 85.7179 93.6504 86.1071 93.642C86.2698 93.6396 86.3855 93.59 86.4541 93.4944Z" fill="white"></path><path d="M93.3559 93.2127C93.3559 93.798 92.8812 94.2708 92.298 94.2696H92.0401C91.457 94.2684 90.9859 93.7932 90.9871 93.2079L90.9907 91.4375C90.9907 90.8522 91.4654 90.3793 92.0486 90.3806H92.3064C92.8896 90.3818 93.3607 90.857 93.3595 91.4423L93.3559 93.2127ZM92.639 91.4387C92.639 91.2017 92.4474 91.0094 92.2112 91.0094H92.1341C91.898 91.0094 91.7064 91.2017 91.7064 91.4387V93.2163C91.7064 93.4533 91.898 93.6456 92.1341 93.6456H92.2112C92.4474 93.6456 92.639 93.4533 92.639 93.2163V91.4387Z" fill="white"></path><path d="M96.2586 91.0819C96.1683 91.1218 96.1128 91.2307 96.0923 91.4084C96.0646 91.6515 96.0622 92.2574 96.0875 93.2272C96.0935 93.4703 96.2177 93.6057 96.4598 93.6311C96.4996 93.6359 96.537 93.6384 96.5719 93.6384C96.8129 93.6408 96.9514 93.5223 96.9888 93.2828C97.0117 93.1401 97.0177 93.0216 97.0081 92.9261C97.0032 92.8789 97.0237 92.856 97.0695 92.856H97.672C97.7069 92.856 97.725 92.8741 97.7262 92.9116C97.7611 93.5561 97.537 94.1305 96.843 94.249C96.4683 94.3131 96.1369 94.2672 95.8502 94.1088C95.555 93.9455 95.3947 93.6468 95.3694 93.2103C95.3417 92.7266 95.3393 92.1558 95.361 91.4979C95.3766 91.0178 95.5983 90.5668 96.096 90.4398C96.99 90.21 97.7286 90.5934 97.7274 91.5922C97.7274 91.6297 97.7093 91.6491 97.672 91.6491L97.0611 91.6455C97.0261 91.6455 97.0093 91.6273 97.0105 91.591C97.0237 91.1122 96.7346 90.8764 96.2586 91.0819Z" fill="white"></path><path d="M4.05078 91.9115H4.05921C4.06524 91.9103 4.07006 91.9067 4.07247 91.9006C4.25923 91.4592 4.45322 90.984 4.65684 90.4737C4.66528 90.4507 4.68215 90.4386 4.70745 90.4386H5.40509C5.41473 90.4386 5.42316 90.4458 5.42316 90.4567C5.42316 90.4591 5.42316 90.4616 5.42196 90.464C5.07374 91.2452 4.77733 91.8934 4.53033 92.4097C4.44478 92.5875 4.40381 92.7725 4.40622 92.9636C4.41466 93.5803 4.41345 93.9733 4.40502 94.1426C4.40261 94.1837 4.38092 94.2055 4.34116 94.2079C4.3014 94.2103 4.2038 94.2116 4.04957 94.2116C3.89535 94.2116 3.79775 94.2103 3.75799 94.2079C3.71822 94.2055 3.69654 94.1837 3.69413 94.1426C3.68569 93.9733 3.68569 93.5803 3.69413 92.9636C3.69654 92.7725 3.65557 92.5875 3.57002 92.4097C3.32422 91.8934 3.02781 91.244 2.6796 90.4628C2.67598 90.4531 2.6796 90.4434 2.68924 90.4386C2.69165 90.4386 2.69406 90.4374 2.69647 90.4374H3.39411C3.41941 90.4386 3.43628 90.4507 3.44471 90.4737C3.64834 90.984 3.84233 91.4592 4.02789 91.9006C4.03029 91.9067 4.03511 91.9103 4.04114 91.9115H4.05078Z" fill="white"></path><path d="M10.014 93.6456C10.3116 93.6456 10.5225 93.4715 10.5237 93.1583C10.5261 92.8221 10.5273 91.9272 10.5273 90.4725C10.5273 90.4507 10.5381 90.4398 10.561 90.4398H11.2129C11.231 90.4386 11.2406 90.4483 11.2406 90.4664C11.2599 91.5306 11.2563 92.4654 11.231 93.2719C11.2093 93.9721 10.6454 94.2769 10.014 94.2769C9.38264 94.2769 8.81754 93.9721 8.79705 93.2719C8.77175 92.4654 8.76814 91.5306 8.78741 90.4664C8.78741 90.4483 8.79705 90.4386 8.81513 90.4386H9.46698C9.48987 90.4398 9.50072 90.4507 9.50072 90.4725C9.50072 91.9272 9.50072 92.8221 9.50433 93.1583C9.50433 93.4715 9.71639 93.6456 10.014 93.6456Z" fill="white"></path><path d="M12.6636 92.7362V94.1559C12.6636 94.1971 12.6444 94.2176 12.6046 94.2176H12.0033C11.9624 94.2176 11.9419 94.1971 11.9419 94.1559V90.5027C11.9419 90.4628 11.9624 90.4422 12.0021 90.4422C12.6419 90.4301 13.0745 90.4362 13.2998 90.4604C13.6745 90.5015 14.0408 90.7071 14.177 91.094C14.3553 91.5995 14.283 92.2356 13.7468 92.4956C13.7095 92.5137 13.6986 92.5428 13.7143 92.5815L14.3903 94.191C14.3939 94.1995 14.3903 94.2079 14.3806 94.2116C14.3782 94.2116 14.377 94.2116 14.3746 94.2116L13.6601 94.2176C13.642 94.2176 13.6264 94.2067 13.6203 94.191L13.0299 92.7278C13.0118 92.6854 12.9817 92.6649 12.9383 92.6661L12.7191 92.6722C12.6817 92.6722 12.6636 92.6939 12.6636 92.735V92.7362ZM12.666 91.088V92.0264C12.666 92.053 12.6877 92.0748 12.7142 92.0748H13.0841C13.3348 92.0748 13.5384 91.874 13.5384 91.6273V91.487C13.5384 91.2404 13.3348 91.0396 13.0841 91.0396H12.7142C12.6877 91.0396 12.666 91.0614 12.666 91.088Z" fill="white"></path><path d="M17.0325 92.7374V94.1862C17.0325 94.2055 17.0217 94.2152 17.0012 94.2152H16.3409C16.324 94.2152 16.3096 94.2019 16.3096 94.1862V90.5208C16.3096 90.4737 16.3337 90.4495 16.3807 90.4483C17.0566 90.4325 17.4711 90.435 17.6253 90.4555C18.323 90.5462 18.6664 90.9283 18.6555 91.5995C18.6519 91.8522 18.5856 92.0651 18.4591 92.2356C18.1615 92.6346 17.5844 92.7096 17.1096 92.6661C17.0578 92.6613 17.0325 92.6854 17.0325 92.7374ZM17.0289 91.0989V92.0131C17.0289 92.0457 17.0554 92.0723 17.0879 92.0723H17.488C17.735 92.0723 17.935 91.8776 17.935 91.637V91.4749C17.935 91.2343 17.735 91.0396 17.488 91.0396H17.0879C17.0554 91.0396 17.0289 91.0662 17.0289 91.0989Z" fill="white"></path><path d="M20.4665 91.949C20.7231 91.949 20.875 91.9478 20.9219 91.9441C20.9593 91.9417 20.9774 91.9224 20.9786 91.8849V90.4664C20.9786 90.4507 20.993 90.4374 21.0099 90.4374L21.6726 90.4398C21.6907 90.4398 21.7003 90.4495 21.7003 90.4676V94.1874C21.7003 94.2079 21.6907 94.2176 21.6702 94.2176L21.0087 94.2152C20.9894 94.2152 20.9798 94.2055 20.9798 94.1874V92.6504C20.9798 92.6129 20.9605 92.5935 20.9231 92.5923C20.7569 92.5863 20.6051 92.5839 20.4665 92.5839C20.3279 92.5839 20.1761 92.5863 20.0098 92.5923C19.9725 92.5935 19.9544 92.6129 19.9544 92.6504V94.1874C19.9544 94.2055 19.9436 94.2152 19.9243 94.2152L19.2628 94.2176C19.2423 94.2176 19.2327 94.2079 19.2327 94.1874V90.4676C19.2327 90.4495 19.2423 90.4398 19.2604 90.4398L19.9231 90.4374C19.9399 90.4374 19.9532 90.4507 19.9532 90.4664V91.8849C19.9556 91.9224 19.9737 91.9417 20.011 91.9441C20.058 91.9478 20.2098 91.949 20.4665 91.949Z" fill="white"></path><path d="M26.0463 91.9067C25.9993 91.8051 25.9764 91.8099 25.9764 91.9224L25.9789 94.1849C25.9789 94.2043 25.9692 94.214 25.9487 94.2152L25.3475 94.2176C25.327 94.2176 25.3162 94.2079 25.3162 94.1886V90.4978C25.3162 90.4555 25.3366 90.435 25.3764 90.435L26.0439 90.441C26.0897 90.441 26.1222 90.4628 26.1403 90.5039L27.0235 92.4847C27.0898 92.6334 27.1223 92.625 27.1223 92.4593L27.1247 90.4664C27.1247 90.4483 27.1344 90.4386 27.1536 90.4386H27.7573C27.7754 90.4386 27.785 90.4483 27.785 90.4664V94.1559C27.7862 94.1958 27.7669 94.2152 27.7272 94.2152L27.1573 94.2188C27.1199 94.2188 27.085 94.1958 27.0693 94.1608L26.0463 91.9067Z" fill="white"></path><path d="M29.1995 92.6238L29.2032 93.5428C29.2032 93.5646 29.2212 93.5827 29.2429 93.5827H30.4563C30.4779 93.5827 30.496 93.6009 30.496 93.6226V94.1777C30.496 94.1995 30.4767 94.2176 30.455 94.2176H28.5188C28.4971 94.2164 28.479 94.1983 28.479 94.1765V90.4785C28.4802 90.4567 28.4983 90.4386 28.52 90.4386H30.4261C30.4478 90.4386 30.4659 90.4567 30.4659 90.4785V91.0324C30.4671 91.0541 30.449 91.0723 30.4273 91.0723H29.2405C29.2188 91.0723 29.2007 91.0904 29.2007 91.1122L29.2019 91.9091C29.2019 91.9309 29.22 91.949 29.2417 91.949H30.1249C30.1466 91.9502 30.1647 91.9683 30.1647 91.9901L30.1671 92.5428C30.1671 92.5645 30.149 92.5827 30.1273 92.5827H29.2393C29.2176 92.5839 29.1995 92.602 29.1995 92.6238Z" fill="white"></path><path d="M35.1072 91.9151C35.1072 91.9151 35.1169 91.9139 35.1205 91.9115C35.1241 91.9103 35.1277 91.9067 35.1301 91.903C35.3338 91.4133 35.5302 90.932 35.7181 90.4592C35.723 90.4459 35.7326 90.4386 35.7458 90.4386H36.4628C36.4724 90.4398 36.4808 90.4483 36.4808 90.458C36.4808 90.4604 36.4808 90.4616 36.4808 90.464C36.1531 91.198 35.8543 91.8498 35.5844 92.4194C35.4988 92.5996 35.4591 92.7786 35.4627 92.9563C35.4723 93.4787 35.4747 93.8766 35.4687 94.1487C35.4687 94.1898 35.447 94.2116 35.4061 94.214C35.3832 94.2152 35.2832 94.2164 35.1085 94.2164C34.9337 94.2164 34.8337 94.2164 34.8108 94.214C34.7699 94.2116 34.7494 94.1898 34.7482 94.1487C34.7422 93.8766 34.7446 93.4787 34.7542 92.9563C34.7578 92.7786 34.7181 92.5996 34.6325 92.4194C34.3626 91.8498 34.0638 91.198 33.7361 90.464C33.7324 90.4543 33.7373 90.4446 33.7469 90.441C33.7493 90.441 33.7505 90.441 33.7529 90.441H34.4698C34.4831 90.4398 34.4927 90.4471 34.4976 90.4604C34.6855 90.9332 34.8819 91.4145 35.0856 91.9042C35.088 91.9079 35.0916 91.9115 35.0952 91.9127C35.0988 91.9151 35.1036 91.9163 35.1085 91.9163L35.1072 91.9151Z" fill="white"></path><path d="M41.069 93.6456C41.3317 93.6456 41.5546 93.5053 41.5715 93.2236C41.5787 93.1172 41.5823 92.1993 41.5835 90.4713C41.5835 90.4483 41.5944 90.4374 41.6173 90.4386H42.2691C42.2896 90.4398 42.3004 90.4507 42.3016 90.4713C42.3053 90.9525 42.3053 91.7773 42.3041 92.9454C42.3041 93.5162 42.2077 93.96 41.6594 94.1717C41.4787 94.2418 41.2823 94.2769 41.069 94.2769C40.8558 94.2769 40.6606 94.2418 40.4798 94.1717C39.9316 93.96 39.8352 93.5162 39.8352 92.9454C39.8352 91.7773 39.8352 90.9525 39.8388 90.4713C39.8388 90.4507 39.8509 90.4398 39.8714 90.4398H40.5232C40.5461 90.4374 40.5569 90.4483 40.5569 90.4713C40.5569 92.1993 40.5606 93.1172 40.5678 93.2236C40.5847 93.5053 40.8076 93.6456 41.069 93.6456Z" fill="white"></path><path d="M43.6898 92.7338V94.1559C43.691 94.1959 43.6717 94.2152 43.6331 94.2152L43.0295 94.2188C42.9885 94.2188 42.968 94.1983 42.968 94.1572V90.5039C42.968 90.4664 42.9873 90.4471 43.0259 90.4459C44.0368 90.4193 45.3417 90.2524 45.2826 91.6805C45.267 92.0603 45.0959 92.3348 44.7706 92.5053C44.7356 92.5234 44.726 92.55 44.7416 92.5851L45.4164 94.191C45.42 94.2007 45.4152 94.2128 45.4043 94.2164C45.4019 94.2164 45.3995 94.2176 45.3971 94.2176L44.6838 94.2152C44.6669 94.2152 44.6525 94.2055 44.6465 94.191L44.0573 92.7338C44.0392 92.6891 44.0091 92.6673 43.9669 92.6685L43.7512 92.6709C43.7102 92.6709 43.6898 92.6915 43.6898 92.7338ZM43.6898 91.088V92.024C43.6898 92.0506 43.7114 92.0724 43.738 92.0724H44.1151C44.3621 92.0724 44.5621 91.8765 44.5621 91.6358V91.4762C44.5621 91.2355 44.3621 91.0396 44.1151 91.0396H43.738C43.7114 91.0396 43.6898 91.0614 43.6898 91.088Z" fill="white"></path><path d="M48.0782 92.6758C48.0661 92.677 48.0577 92.7036 48.0577 92.735V94.1862C48.0577 94.2019 48.0444 94.2152 48.0288 94.2152H47.3673C47.3468 94.2152 47.3359 94.2055 47.3359 94.1862V90.5027C47.3359 90.4628 47.3552 90.4434 47.395 90.4422C47.8107 90.4313 48.1709 90.4325 48.4758 90.4434C49.2855 90.4737 49.6771 90.8824 49.6518 91.6696C49.6385 92.053 49.4686 92.3323 49.1397 92.5053C49.1047 92.5234 49.0939 92.5512 49.1096 92.5863L49.7855 94.1922C49.7891 94.2019 49.7831 94.2115 49.7735 94.2152C49.771 94.2152 49.7698 94.2152 49.7674 94.2152H49.0541C49.0373 94.2152 49.0204 94.2055 49.0144 94.1898L48.424 92.7302C48.4071 92.6879 48.3866 92.6673 48.3625 92.6685L48.0782 92.6745V92.6758ZM48.0541 91.0892L48.0565 92.0252C48.0565 92.0518 48.0782 92.0735 48.1047 92.0735H48.4866C48.7336 92.0711 48.9336 91.8728 48.9324 91.6285V91.481C48.9324 91.2367 48.7312 91.0384 48.4842 91.0396H48.1023C48.0758 91.0408 48.0541 91.0626 48.0541 91.0892Z" fill="white"></path><path d="M50.9493 91.1134V91.9079C50.9493 91.9296 50.9673 91.9478 50.989 91.9478L51.8722 91.9514C51.8939 91.9514 51.912 91.9695 51.912 91.9913L51.9156 92.5415C51.9156 92.5633 51.8975 92.5814 51.8758 92.5814L50.9878 92.5851C50.9661 92.5851 50.9481 92.6032 50.9481 92.625L50.9505 93.5428C50.9505 93.5646 50.9685 93.5827 50.9902 93.5827H52.2036C52.2253 93.5815 52.2433 93.5997 52.2433 93.6214V94.1765C52.2433 94.1983 52.2253 94.2164 52.2036 94.2164H50.2661C50.2444 94.2164 50.2263 94.1983 50.2263 94.1765V90.4785C50.2263 90.4567 50.2444 90.4386 50.2661 90.4386H52.1734C52.1951 90.4374 52.2132 90.4555 52.2132 90.4773V91.0311C52.2132 91.0529 52.1951 91.071 52.1734 91.071L50.9878 91.0735C50.9661 91.0735 50.9481 91.0916 50.9481 91.1134H50.9493Z" fill="white"></path><path d="M54.6846 90.4374C54.7822 90.4374 54.881 90.4422 54.9798 90.4483C55.016 90.4507 55.0377 90.4688 55.0449 90.5039L55.5064 92.7399C55.5341 92.8729 55.5606 92.8729 55.5883 92.7399L56.0558 90.4737C56.0594 90.4555 56.0763 90.4422 56.0956 90.4422L56.7065 90.4483C56.7221 90.4483 56.7293 90.4568 56.7257 90.4725L55.9245 94.1632C55.916 94.2019 55.8931 94.2212 55.8546 94.2212L55.2907 94.2188C55.2485 94.2188 55.222 94.1983 55.2136 94.1559C54.9931 93.1148 54.828 92.319 54.7184 91.7688C54.7099 91.7289 54.6979 91.7084 54.681 91.7071C54.6629 91.7071 54.6509 91.7289 54.6425 91.7688C54.5292 92.319 54.3581 93.1135 54.1304 94.1523C54.1219 94.1946 54.0954 94.2152 54.0533 94.214H53.4894C53.4508 94.2128 53.4279 94.1934 53.4195 94.1547L52.6435 90.458C52.6411 90.4422 52.6483 90.4338 52.664 90.4338H53.2749C53.2942 90.4338 53.3098 90.4459 53.3134 90.464L53.7653 92.7338C53.7918 92.8668 53.8195 92.8668 53.8472 92.7338L54.3244 90.5015C54.3316 90.4664 54.3533 90.4483 54.3906 90.4459C54.4894 90.4398 54.587 90.4374 54.6846 90.4374Z" fill="white"></path><path d="M58.2246 90.4374C58.3318 90.4374 58.4631 90.4434 58.621 90.4531C58.6656 90.4555 58.6921 90.4785 58.7029 90.522L59.5897 94.1874C59.5946 94.2079 59.5861 94.2188 59.5656 94.2188H58.9331C58.915 94.2188 58.8993 94.2067 58.8945 94.1898L58.7355 93.4993C58.727 93.4654 58.7053 93.4461 58.6692 93.4424C58.6065 93.4352 58.4547 93.4316 58.2149 93.4304C57.9752 93.4304 57.8246 93.4328 57.7619 93.44C57.7257 93.4437 57.7029 93.463 57.6944 93.4957L57.5318 94.1862C57.5269 94.2031 57.5113 94.2152 57.4932 94.2152L56.8606 94.2103C56.8401 94.2103 56.8317 94.1995 56.8365 94.1789L57.745 90.5196C57.7559 90.4761 57.7824 90.4531 57.827 90.4507C57.9848 90.4422 58.1173 90.4374 58.2246 90.4374ZM58.2113 92.7967C58.3077 92.7967 58.4041 92.7991 58.5005 92.8027C58.5294 92.8039 58.5547 92.781 58.5559 92.7519C58.5559 92.7471 58.5559 92.7435 58.5559 92.7386C58.3475 91.7785 58.2342 91.2984 58.2161 91.2984C58.1993 91.2984 58.0836 91.7773 57.8691 92.7362C57.8619 92.7652 57.88 92.7931 57.9089 92.8003C57.9137 92.8003 57.9185 92.8015 57.9234 92.8015C58.0197 92.7979 58.1161 92.7955 58.2125 92.7967H58.2113Z" fill="white"></path><path d="M60.7307 92.6745C60.7187 92.6758 60.709 92.7024 60.709 92.735V94.1862C60.7102 94.2031 60.697 94.2164 60.6801 94.2164H60.0186C60.0018 94.2164 59.9885 94.2031 59.9873 94.1874V90.5039C59.9873 90.4664 60.0066 90.4458 60.0451 90.4446C60.4873 90.4289 60.8681 90.4301 61.1862 90.4483C61.9441 90.493 62.3176 90.8909 62.3043 91.6442C62.2971 92.0409 62.126 92.3287 61.791 92.5077C61.7561 92.5258 61.7453 92.5524 61.7609 92.5887L62.4381 94.1934C62.4417 94.2019 62.4369 94.2115 62.4272 94.2152C62.4248 94.2152 62.4236 94.2152 62.4212 94.2152L61.7055 94.2176C61.6874 94.2176 61.6718 94.2067 61.6657 94.191L61.0753 92.7302C61.0597 92.6903 61.0368 92.6697 61.0091 92.6697L60.7307 92.6745ZM60.7054 91.088L60.7078 92.024C60.7078 92.0506 60.7295 92.0723 60.756 92.0723H61.138C61.385 92.0699 61.585 91.8716 61.5838 91.6273V91.4798C61.5838 91.2355 61.3826 91.0372 61.1356 91.0384H60.7536C60.7271 91.0396 60.7054 91.0614 60.7054 91.088Z" fill="white"></path><path d="M62.9092 90.4858C62.9092 90.4568 62.9321 90.4338 62.961 90.4338H64.0394C64.6973 90.4338 65.2298 90.9671 65.2298 91.6261V93.0289C65.2298 93.688 64.6973 94.2212 64.0394 94.2212H62.961C62.9321 94.2212 62.9092 94.1983 62.9092 94.1692V90.4858ZM63.6345 91.1122L63.6297 93.5356C63.6297 93.5622 63.6514 93.584 63.6779 93.584H63.9177C64.2418 93.5864 64.5045 93.3131 64.5057 92.9757L64.5081 91.6769C64.5081 91.3395 64.2466 91.0662 63.9225 91.065H63.6827C63.6562 91.0638 63.6345 91.0856 63.6345 91.1122Z" fill="white"></path><path d="M72.7305 91.9115H72.7389C72.7461 91.9103 72.7509 91.9067 72.7522 91.9018C72.91 91.5306 73.104 91.0541 73.3365 90.4737C73.345 90.4507 73.3618 90.4386 73.3871 90.4386H74.0848C74.0944 90.4386 74.1029 90.4458 74.1029 90.4567C74.1029 90.4591 74.1029 90.4616 74.1016 90.464C73.804 91.1363 73.5064 91.7857 73.21 92.4109C73.1257 92.5887 73.0847 92.7725 73.0859 92.9611C73.0919 93.5331 73.0931 93.9298 73.0883 94.1499C73.0883 94.1898 73.0666 94.2116 73.0269 94.214C73.0016 94.2152 72.9028 94.2164 72.7293 94.2164C72.5558 94.2164 72.457 94.2164 72.4317 94.214C72.3919 94.2116 72.3714 94.1898 72.3702 94.1499C72.3666 93.9298 72.3678 93.5331 72.3738 92.9611C72.375 92.7725 72.3341 92.5887 72.2497 92.4109C71.9545 91.7857 71.6569 91.1363 71.3593 90.4628C71.3557 90.4531 71.3593 90.4434 71.3689 90.4386C71.3713 90.4386 71.3737 90.4374 71.3762 90.4374H72.0738C72.0991 90.4386 72.116 90.4507 72.1244 90.4737C72.3569 91.0541 72.5509 91.5306 72.7088 91.9018C72.71 91.9067 72.7148 91.9103 72.722 91.9115H72.7305Z" fill="white"></path><path d="M78.6934 93.6456C78.9549 93.6456 79.179 93.5041 79.1959 93.2236C79.2043 93.0736 79.2079 92.1558 79.2067 90.47C79.2067 90.4495 79.2176 90.4398 79.2381 90.4398H79.8923C79.914 90.4386 79.9249 90.4495 79.9249 90.4713C79.9369 91.9744 79.9333 92.9104 79.914 93.2792C79.8767 93.977 79.3272 94.2769 78.6934 94.2769C78.0597 94.2769 77.5102 93.977 77.4729 93.2792C77.4536 92.9104 77.45 91.9744 77.462 90.4713C77.462 90.4495 77.4729 90.4386 77.4946 90.4386H78.1488C78.1693 90.4398 78.1801 90.4495 78.1801 90.47C78.1789 92.1558 78.1826 93.0736 78.191 93.2236C78.2079 93.5041 78.432 93.6456 78.6934 93.6456Z" fill="white"></path><path d="M81.3371 92.6758C81.3239 92.6758 81.313 92.7036 81.313 92.735V94.1862C81.313 94.2019 81.2998 94.2152 81.2841 94.2152H80.6226C80.6022 94.2164 80.5913 94.2067 80.5913 94.1862V90.5015C80.5913 90.4592 80.6118 90.4386 80.654 90.4398C81.1962 90.441 81.6938 90.3878 82.0938 90.4894C82.7758 90.6635 83.0276 91.169 82.8481 92.0058C82.8107 92.1788 82.6589 92.3456 82.3914 92.5089C82.3601 92.5282 82.3517 92.5548 82.3649 92.5875L83.0409 94.1922C83.0445 94.2007 83.0409 94.2103 83.0312 94.2152C83.0288 94.2152 83.0264 94.2164 83.024 94.2164H82.3095C82.2926 94.2176 82.2758 94.2067 82.2697 94.191L81.6793 92.7314C81.6625 92.6891 81.6408 92.6685 81.6155 92.6685L81.3371 92.6758ZM81.307 91.1097L81.3094 92.0022C81.3094 92.0409 81.3408 92.0723 81.3793 92.0723H81.7408C81.9878 92.0699 82.189 91.8716 82.1878 91.6261V91.481C82.1878 91.2355 81.9854 91.0372 81.7384 91.0384H81.3769C81.3384 91.0396 81.307 91.071 81.307 91.1097Z" fill="white"></path><path d="M89.1159 91.949C89.3605 91.949 89.5123 91.9478 89.5713 91.9442C89.6087 91.9417 89.628 91.9224 89.628 91.8849V90.4676C89.6292 90.4519 89.6412 90.4386 89.6569 90.4386H90.3208C90.3365 90.4398 90.3497 90.4519 90.3497 90.4676V94.1862C90.3509 94.2055 90.3401 94.2152 90.3196 94.2152H89.6593C89.6388 94.2164 89.628 94.2067 89.628 94.1862L89.6304 92.6661C89.6304 92.6201 89.6063 92.596 89.5581 92.5948C89.3882 92.5875 89.24 92.5839 89.1159 92.5839C88.9918 92.5839 88.8436 92.5875 88.6737 92.5948C88.6255 92.596 88.6014 92.6201 88.6014 92.6661L88.6038 94.1862C88.6038 94.2067 88.593 94.2164 88.5725 94.2164H87.9122C87.8917 94.2152 87.8809 94.2055 87.8809 94.1862V90.4676C87.8809 90.4519 87.8941 90.4398 87.9098 90.4398H88.5737C88.5893 90.4386 88.6014 90.4519 88.6014 90.4676L88.6038 91.8849C88.6038 91.9224 88.6231 91.9417 88.6604 91.9442C88.7195 91.9478 88.8713 91.949 89.1159 91.949Z" fill="white"></path><path d="M94.6488 90.4386H94.0053C93.9834 90.4386 93.9656 90.4565 93.9656 90.4785V94.1765C93.9656 94.1985 93.9834 94.2164 94.0053 94.2164H94.6488C94.6707 94.2164 94.6885 94.1985 94.6885 94.1765V90.4785C94.6885 90.4565 94.6707 90.4386 94.6488 90.4386Z" fill="white"></path><path d="M99.0238 92.625L99.0262 93.5428C99.0262 93.5646 99.0442 93.5827 99.0659 93.5827H100.279C100.301 93.5815 100.319 93.5997 100.319 93.6214V94.1765C100.32 94.1983 100.302 94.2164 100.28 94.2164H98.343C98.3213 94.2164 98.3032 94.1983 98.3032 94.1765V90.4785C98.3032 90.4567 98.3213 90.4386 98.343 90.4386H100.25C100.272 90.4374 100.29 90.4555 100.29 90.4773V91.0324C100.29 91.0541 100.272 91.0723 100.25 91.0723H99.0647C99.043 91.0735 99.025 91.0916 99.025 91.1134V91.9079C99.025 91.9296 99.043 91.9478 99.0647 91.9478L99.9479 91.9514C99.9696 91.9514 99.9877 91.9695 99.9877 91.9913L99.9913 92.5415C99.9913 92.5633 99.9732 92.5814 99.9515 92.5814L99.0635 92.5851C99.0418 92.5851 99.0238 92.6032 99.0238 92.625Z" fill="white"></path><path d="M31.3672 94.2176H31.1925C31.1504 94.2188 31.1299 94.1982 31.1299 94.1571L31.1335 93.4896C31.1335 93.4715 31.1419 93.4618 31.16 93.4618H31.8504C31.8649 93.4618 31.8769 93.4751 31.8781 93.4896C31.8781 93.5779 31.8817 93.7387 31.8866 93.9733C31.8938 94.318 31.7022 94.6239 31.5709 94.9456C31.5564 94.9819 31.5287 95 31.4865 95H31.2287C31.1962 94.9988 31.1841 94.9831 31.1949 94.9516L31.4251 94.2962C31.4432 94.2442 31.4239 94.2176 31.3672 94.2176Z" fill="white"></path><path d="M68.9591 94.2164L68.8 94.22C68.7482 94.2212 68.7229 94.1958 68.7229 94.1426L68.7265 93.4896C68.7265 93.4715 68.7349 93.463 68.753 93.4618H69.4434C69.4579 93.4618 69.4699 93.4751 69.4711 93.4896C69.4736 93.7956 69.5254 94.1366 69.3856 94.4353C69.3109 94.5961 69.2374 94.7654 69.1639 94.9456C69.1482 94.9819 69.1205 95 69.0783 95H68.8205C68.788 95 68.7771 94.9843 68.788 94.9516L69.0169 94.295C69.0362 94.2418 69.0169 94.2152 68.9591 94.2164Z" fill="white"></path></g><defs><linearGradient id="paint0_linear_33_5" x1="15.6313" y1="50.6133" x2="87.3689" y2="50.6133" gradientUnits="userSpaceOnUse"><stop stop-color="#EE4789"></stop><stop offset="0.5" stop-color="#B1629D"></stop><stop offset="1" stop-color="#6E70B4"></stop></linearGradient><linearGradient id="paint1_linear_33_5" x1="49.3734" y1="61.654" x2="64.4094" y2="61.654" gradientUnits="userSpaceOnUse"><stop stop-color="#EE4789"></stop><stop offset="0.5" stop-color="#B1629D"></stop><stop offset="1" stop-color="#6E70B4"></stop></linearGradient><clipPath id="clip0_33_5"><rect width="103" height="95" fill="white"></rect></clipPath></defs></svg>
